<?xml version="1.0" encoding="UTF-8"?>
<svg version="1.1" xmlns="http://www.w3.org/2000/svg" width="512" height="512">
<path d="M0 0 C0.88441772 -0.0157608 1.76883545 -0.03152161 2.68005371 -0.04776001 C3.62288208 -0.03763885 4.56571045 -0.0275177 5.53710938 -0.01708984 C6.51699829 -0.02187347 7.49688721 -0.0266571 8.50646973 -0.03158569 C10.57415374 -0.03498175 12.64189166 -0.02579997 14.70947266 -0.00488281 C17.87068639 0.02188651 21.02834955 -0.00464106 24.18945312 -0.03662109 C26.2011797 -0.03331694 28.21290406 -0.0269106 30.22460938 -0.01708984 C31.16743774 -0.027211 32.11026611 -0.03733215 33.08166504 -0.04776001 C37.58431109 0.03247958 39.76097503 0.2061982 43.515625 2.87597656 C45.38085938 5.64697266 45.38085938 5.64697266 45.38085938 10.64697266 C53.63085938 10.64697266 61.88085938 10.64697266 70.38085938 10.64697266 C70.38085938 8.99697266 70.38085938 7.34697266 70.38085938 5.64697266 C72.45786395 2.5314658 74.03053827 0.9236778 77.76367188 0.15869141 C82.3343703 -0.08007642 84.69083711 0.16395707 88.50585938 2.83447266 C90.38085938 5.64697266 90.38085938 5.64697266 90.38085938 10.64697266 C98.63085938 10.64697266 106.88085938 10.64697266 115.38085938 10.64697266 C115.38085938 8.99697266 115.38085938 7.34697266 115.38085938 5.64697266 C117.37980766 2.67733089 118.95327908 0.95221983 122.5402832 0.1852417 C125.21883249 -0.01648031 127.85108515 -0.04592401 130.53710938 -0.01708984 C131.51699829 -0.02187347 132.49688721 -0.0266571 133.50646973 -0.03158569 C135.57415374 -0.03498175 137.64189166 -0.02579997 139.70947266 -0.00488281 C142.87068639 0.02188651 146.02834955 -0.00464106 149.18945312 -0.03662109 C151.2011797 -0.03331694 153.21290406 -0.0269106 155.22460938 -0.01708984 C156.16743774 -0.027211 157.11026611 -0.03733215 158.08166504 -0.04776001 C159.40829163 -0.0241188 159.40829163 -0.0241188 160.76171875 0 C161.53495483 0.00397797 162.30819092 0.00795593 163.1048584 0.01205444 C166.64063396 0.99840213 168.15154858 2.78408258 170.38085938 5.64697266 C171.01577759 8.87207031 171.01577759 8.87207031 171.02783203 12.56103516 C171.04097443 13.57420807 171.04097443 13.57420807 171.05438232 14.60784912 C171.07630306 16.82988647 171.06185285 19.04991682 171.04492188 21.27197266 C171.0482922 22.82226949 171.05314662 24.37256375 171.05941772 25.92285156 C171.06677901 29.16773706 171.05610864 32.41193311 171.03271484 35.65673828 C171.0042262 39.80997596 171.02063435 43.96159817 171.05057716 48.11477661 C171.06867105 51.31482043 171.06288282 54.51448309 171.0499382 57.71453857 C171.0466099 59.2455057 171.05067106 60.77650777 171.06233597 62.30743408 C171.07508085 64.45018755 171.05562431 66.59034915 171.02783203 68.73291016 C171.02385406 69.95026855 171.0198761 71.16762695 171.01577759 72.421875 C170.17795028 76.67765918 168.88597712 78.12675798 165.38085938 80.64697266 C162.67816629 81.11819949 160.61729572 81.2853348 157.9284668 81.21459961 C157.19621887 81.21532974 156.46397095 81.21605988 155.70953369 81.21681213 C153.30103192 81.21334224 150.89448989 81.17451394 148.48632812 81.13525391 C146.81196652 81.12592354 145.13759122 81.11880848 143.46321106 81.11381531 C139.06521642 81.09476282 134.66805293 81.04567788 130.27038574 80.99029541 C125.77932986 80.93906471 121.28813912 80.91629316 116.796875 80.89111328 C107.99115586 80.83755672 99.18611113 80.75226608 90.38085938 80.64697266 C90.27013157 87.23130171 90.23758995 93.81273255 90.25878906 100.39794922 C90.25684519 102.63664321 90.23715728 104.87539619 90.19921875 107.11376953 C90.14768371 110.3375723 90.16047528 113.55577842 90.18554688 116.77978516 C90.14093826 118.27543503 90.14093826 118.27543503 90.09542847 119.80130005 C90.15546987 122.73246933 90.30937283 124.91315594 91.38085938 127.64697266 C93.76404617 129.68444595 96.06700824 130.99828806 98.89968872 132.33200073 C104.8739827 135.4982597 108.42811148 142.35876286 110.38085938 148.64697266 C110.78436233 151.91662494 110.76126416 155.14680754 110.72143555 158.43774414 C110.72187363 159.39461624 110.72231171 160.35148834 110.72276306 161.33735657 C110.72068311 164.48113844 110.6973893 167.62437838 110.67382812 170.76806641 C110.66822936 172.95524301 110.66396058 175.14242339 110.66096497 177.3296051 C110.64953837 183.07207722 110.62008983 188.81431988 110.58685303 194.55670166 C110.5561051 200.42204688 110.54244953 206.28742936 110.52734375 212.15283203 C110.49521818 223.65097944 110.44404814 235.14895693 110.38085938 246.64697266 C111.3399118 246.84432007 112.29896423 247.04166748 113.28707886 247.24499512 C114.54634186 247.50848755 115.80560486 247.77197998 117.10302734 248.04345703 C118.97473099 248.43229065 118.97473099 248.43229065 120.88424683 248.82897949 C125.06896755 249.80794782 128.71299115 251.1586521 132.50585938 253.14697266 C133.16763184 253.48591553 133.8294043 253.8248584 134.51123047 254.17407227 C141.4784484 257.93643712 146.93230641 262.96674894 152.38085938 268.64697266 C152.98285156 269.25283203 153.58484375 269.85869141 154.20507812 270.48291016 C165.43125797 282.56357613 170.50752503 298.1646001 170.58398438 314.33837891 C170.58968445 315.27947006 170.59538452 316.22056122 170.60125732 317.19017029 C170.6106886 319.18137495 170.61723386 321.1725951 170.62109375 323.16381836 C170.63074809 326.17476569 170.66176821 329.18501493 170.69335938 332.19580078 C170.76721013 345.26561975 169.91629625 356.81311682 163.88085938 368.64697266 C163.37135742 369.65425415 163.37135742 369.65425415 162.8515625 370.68188477 C159.0999163 377.71789324 154.10138719 383.16130522 148.38085938 388.64697266 C147.66671875 389.34564453 146.95257813 390.04431641 146.21679688 390.76416016 C142.20318988 394.48993876 138.18097393 397.0026683 133.16601562 399.21337891 C130.57140137 401.2970188 130.80720042 403.45249646 130.38085938 406.64697266 C131.1662207 406.63126221 131.95158203 406.61555176 132.76074219 406.59936523 C136.38403873 406.53627963 140.00721911 406.49775055 143.63085938 406.45947266 C145.48324219 406.42176758 145.48324219 406.42176758 147.37304688 406.38330078 C158.49032632 406.29553279 168.43863179 408.07629342 178.38085938 413.14697266 C179.38814087 413.65647461 179.38814087 413.65647461 180.41577148 414.17626953 C187.45949678 417.93203039 192.87485204 422.93797887 198.38085938 428.64697266 C199.37666016 429.59636719 199.37666016 429.59636719 200.39257812 430.56494141 C204.41092264 434.65552582 207.0245742 439.33970835 209.63085938 444.39697266 C209.96053711 445.02821045 210.29021484 445.65944824 210.62988281 446.30981445 C216.54153481 458.37061316 216.91282282 470.47421178 216.88183594 483.64916992 C216.88085315 486.60317408 216.92281121 489.55466316 216.96679688 492.50830078 C216.97199758 494.39696729 216.97469217 496.28564274 216.97460938 498.17431641 C216.99100464 499.05143784 217.0073999 499.92855927 217.02429199 500.83226013 C217.01498657 501.65404251 217.00568115 502.47582489 216.99609375 503.32250977 C216.99814819 504.03910263 217.00020264 504.7556955 217.00231934 505.4940033 C216.00323499 508.95520453 214.1633324 510.40816697 211.38085938 512.64697266 C208.37569285 513.1382187 205.94029093 513.32059419 202.93966675 513.27617836 C202.08783192 513.28344556 201.23599709 513.29071277 200.35834908 513.29820019 C197.49024486 513.31651747 194.62346662 513.29906368 191.75537109 513.28189087 C189.68396252 513.28764939 187.61255904 513.29558869 185.54116631 513.30552709 C179.8383878 513.32646045 174.13602595 513.31605562 168.43324566 513.300596 C162.28727538 513.289313 156.14137825 513.30673004 149.99542236 513.32049561 C138.64785705 513.34147718 127.30046218 513.33961223 115.95290107 513.32593826 C105.47051919 513.31336861 94.9881862 513.31007317 84.50579834 513.31605148 C83.4634832 513.31662437 83.4634832 513.31662437 82.40011118 513.31720883 C79.57949639 513.31876548 76.75888161 513.32035748 73.93826687 513.32200765 C47.46983716 513.33730832 21.00149238 513.32342639 -5.46692422 513.29652317 C-28.99101581 513.27279448 -52.51497209 513.27491759 -76.0390625 513.29882812 C-102.45856491 513.32559177 -128.87799225 513.33622328 -155.29750633 513.32076681 C-158.11303073 513.31916318 -160.92855516 513.31759898 -163.74407959 513.31605148 C-164.78398748 513.3154584 -164.78398748 513.3154584 -165.8449036 513.31485334 C-176.32161076 513.30916203 -186.79826372 513.31582468 -197.27496338 513.32844925 C-209.18550925 513.34272992 -221.09589526 513.33872248 -233.00643492 513.31204553 C-239.08703149 513.29887663 -245.16735296 513.29380745 -251.24794769 513.31029129 C-256.80934072 513.32513996 -262.37020242 513.31708649 -267.93154693 513.29040353 C-269.94829142 513.28479698 -271.96508037 513.28770732 -273.9817965 513.29978247 C-276.7144934 513.31489526 -279.44534876 513.29949081 -282.177948 513.27617836 C-282.9687651 513.28788419 -283.75958221 513.29959002 -284.57436347 513.31165057 C-288.62087607 513.24221883 -290.41274668 512.81303929 -293.60787392 510.24220788 C-295.6636235 507.58957424 -296.24376311 506.59709598 -296.234375 503.32250977 C-296.24368042 502.50072739 -296.25298584 501.67894501 -296.26257324 500.83226013 C-296.24617798 499.9551387 -296.22978271 499.07801727 -296.21289062 498.17431641 C-296.21293091 497.2554213 -296.21297119 496.33652618 -296.2130127 495.38978577 C-296.20765905 493.44557865 -296.19008291 491.50137198 -296.16113281 489.55737305 C-296.11962051 486.61844705 -296.12004034 483.68184294 -296.12695312 480.74267578 C-296.08476186 467.86680547 -295.05817807 456.29181532 -289.11914062 444.64697266 C-288.77947266 443.97545166 -288.43980469 443.30393066 -288.08984375 442.61206055 C-284.33408289 435.56833525 -279.32813441 430.15297999 -273.61914062 424.64697266 C-272.66974609 423.65117188 -272.66974609 423.65117188 -271.70117188 422.63525391 C-267.61058746 418.61690939 -262.92640494 416.00325783 -257.86914062 413.39697266 C-257.23790283 413.06729492 -256.60666504 412.73761719 -255.95629883 412.39794922 C-245.22124261 407.13611557 -234.68723678 406.21891642 -222.86914062 406.45947266 C-221.5878125 406.47300781 -220.30648437 406.48654297 -218.98632812 406.50048828 C-215.86347368 406.53544561 -212.74154522 406.58451175 -209.61914062 406.64697266 C-209.95596499 402.28084449 -209.95596499 402.28084449 -212.55273438 399.06494141 C-213.79216797 398.45585938 -213.79216797 398.45585938 -215.05664062 397.83447266 C-221.06691312 394.54211226 -225.74114268 390.42869432 -230.61914062 385.64697266 C-231.32039063 384.98181641 -232.02164063 384.31666016 -232.74414062 383.63134766 C-237.10333918 379.16998039 -240.10688543 374.34633332 -242.93164062 368.83447266 C-243.25729004 368.20726318 -243.58293945 367.58005371 -243.91845703 366.93383789 C-249.80151118 354.83273508 -250.09583327 342.7944384 -250.01025391 329.60205078 C-249.99417356 326.6530125 -250.01016666 323.70534436 -250.02929688 320.75634766 C-250.0453736 307.84265334 -249.07862531 296.33190683 -243.11914062 284.64697266 C-242.77947266 283.97545166 -242.43980469 283.30393066 -242.08984375 282.61206055 C-238.33408289 275.56833525 -233.32813441 270.15297999 -227.61914062 264.64697266 C-226.66974609 263.65117188 -226.66974609 263.65117188 -225.70117188 262.63525391 C-212.46417885 249.63202676 -194.19413912 246.14800548 -176.40429688 246.29931641 C-156.6775981 246.7672406 -141.16919969 254.59737224 -127.61914062 268.64697266 C-126.95527344 269.27990234 -126.29140625 269.91283203 -125.60742188 270.56494141 C-113.60966772 282.77838552 -109.37014215 299.86473497 -109.43164062 316.39697266 C-109.49351562 319.77947266 -109.55539063 323.16197266 -109.61914062 326.64697266 C-96.41914063 326.64697266 -83.21914062 326.64697266 -69.61914062 326.64697266 C-69.90296112 320.87822374 -69.90296112 320.87822374 -72.55273438 319.06494141 C-73.37902344 318.65888672 -74.2053125 318.25283203 -75.05664062 317.83447266 C-81.06691312 314.54211226 -85.74114268 310.42869432 -90.61914062 305.64697266 C-91.32039062 304.98181641 -92.02164063 304.31666016 -92.74414062 303.63134766 C-97.10333918 299.16998039 -100.10688543 294.34633332 -102.93164062 288.83447266 C-103.42011475 287.89365845 -103.42011475 287.89365845 -103.91845703 286.93383789 C-109.08956709 276.29716298 -110.07215761 265.58404146 -110.01757812 253.89697266 C-110.01960665 252.50797372 -110.02252449 251.11897583 -110.02627563 249.72998047 C-110.03066254 246.83892535 -110.02438697 243.948151 -110.01025391 241.05712891 C-109.99316386 237.38602333 -110.00302484 233.71557617 -110.0209713 230.04449463 C-110.0319086 227.1822429 -110.02831778 224.3201425 -110.02058792 221.45788574 C-110.01766642 219.4574337 -110.02663806 217.45697533 -110.03598022 215.45654297 C-109.9525273 204.49870313 -108.12067012 194.45361634 -103.11914062 184.64697266 C-102.60963867 183.63969116 -102.60963867 183.63969116 -102.08984375 182.61206055 C-98.33408289 175.56833525 -93.32813441 170.15297999 -87.61914062 164.64697266 C-86.98621094 163.98310547 -86.35328125 163.31923828 -85.70117188 162.63525391 C-72.46417885 149.63202676 -54.19413912 146.14800548 -36.40429688 146.29931641 C-16.6775981 146.7672406 -1.16919969 154.59737224 12.38085938 168.64697266 C13.37666016 169.59636719 13.37666016 169.59636719 14.39257812 170.56494141 C18.41092264 174.65552582 21.0245742 179.33970835 23.63085938 184.39697266 C23.96053711 185.02821045 24.29021484 185.65944824 24.62988281 186.30981445 C29.84990192 196.95956172 30.83402552 207.67796334 30.77929688 219.39697266 C30.7813254 220.7859716 30.78424324 222.17496949 30.78799438 223.56396484 C30.79238129 226.45501996 30.78610572 229.34579431 30.77197266 232.23681641 C30.75488261 235.90792198 30.76474359 239.57836915 30.78269005 243.24945068 C30.79362735 246.11170241 30.79003653 248.97380282 30.78230667 251.83605957 C30.77938517 253.83651161 30.78835681 255.83696999 30.79769897 257.83740234 C30.71424605 268.79524219 28.88238887 278.84032898 23.88085938 288.64697266 C23.37135742 289.65425415 23.37135742 289.65425415 22.8515625 290.68188477 C19.0999163 297.71789324 14.10138719 303.16130522 8.38085938 308.64697266 C7.66671875 309.34564453 6.95257813 310.04431641 6.21679688 310.76416016 C2.20318988 314.48993876 -1.81902607 317.0026683 -6.83398438 319.21337891 C-9.34686504 320.90536268 -9.34686504 320.90536268 -9.61914062 326.64697266 C-2.02914063 326.31697266 5.56085938 325.98697266 13.38085938 325.64697266 C19.76530211 316.051114 25.70963562 306.2769415 31.31835938 296.20947266 C31.95977245 295.05890129 31.95977245 295.05890129 32.61414337 293.88508606 C52.31026813 258.09717314 52.69252495 223.44768868 51.32592773 183.39526367 C51.2889059 182.27768519 51.25188406 181.16010672 51.21374035 180.00866222 C51.03038244 174.72503178 50.80096339 169.45220481 50.46763611 164.17582703 C49.87774427 153.5616315 49.69347852 145.50687573 56.38085938 136.64697266 C60.39338382 132.30099066 63.96681465 130.35399502 69.38085938 127.64697266 C69.71085937 112.13697266 70.04085938 96.62697266 70.38085938 80.64697266 C62.34677734 80.73398438 62.34677734 80.73398438 54.15039062 80.82275391 C50.75517801 80.84830476 47.3600841 80.87237436 43.96484375 80.89111328 C38.57681633 80.92099173 33.18921415 80.95631937 27.80151367 81.02416992 C23.45726046 81.07853672 19.11346328 81.10840292 14.7688961 81.12135887 C13.112259 81.13059047 11.45564658 81.14861811 9.79920387 81.17562294 C7.47667336 81.21197763 5.15602167 81.21691567 2.83325195 81.21459961 C2.14992294 81.23257599 1.46659393 81.25055237 0.76255798 81.26907349 C-2.85992372 81.23004367 -4.57917602 80.6757076 -7.54447937 78.54362488 C-10.08928859 74.99054976 -10.25191952 73.0765614 -10.26611328 68.73291016 C-10.27925568 67.71973724 -10.27925568 67.71973724 -10.29266357 66.68609619 C-10.31458431 64.46405884 -10.3001341 62.2440285 -10.28320312 60.02197266 C-10.28657345 58.47167582 -10.29142787 56.92138157 -10.29769897 55.37109375 C-10.30506026 52.12620825 -10.29438989 48.8820122 -10.27099609 45.63720703 C-10.24250745 41.48396935 -10.2589156 37.33234714 -10.28885841 33.1791687 C-10.3069523 29.97912489 -10.30116407 26.77946222 -10.28821945 23.57940674 C-10.28489115 22.04843961 -10.28895231 20.51743754 -10.30061722 18.98651123 C-10.3133621 16.84375776 -10.29390556 14.70359617 -10.26611328 12.56103516 C-10.26213531 11.34367676 -10.25815735 10.12631836 -10.25405884 8.87207031 C-9.15659193 3.29743425 -5.73267997 0.02949217 0 0 Z " fill="#000000" transform="translate(295.619140625,-0.64697265625)"/>
<path d="M0 0 C11.39192846 8.93376677 18.73789906 20.56750372 20.88647461 34.99609375 C22.80006016 54.18666432 22.80006016 54.18666432 19.21582031 59.79589844 C16.04081074 62.71998309 12.21180876 64.28929498 8.28564453 65.97851562 C-3.48474732 71.82508464 -11.53061353 87.39305764 -15.76113892 99.31549072 C-19.64503938 111.67230891 -18.92252558 124.80287506 -18.98828125 137.60546875 C-19.00524532 139.63851646 -19.02306516 141.67155721 -19.04174805 143.70458984 C-19.10457652 151.18709481 -19.15092759 158.66973084 -19.19921875 166.15234375 C-19.32296875 182.89984375 -19.44671875 199.64734375 -19.57421875 216.90234375 C-54.55421875 216.90234375 -89.53421875 216.90234375 -125.57421875 216.90234375 C-125.57421875 180.28154066 -125.57421875 180.28154066 -111.38671875 165.08984375 C-97.60885683 152.22272186 -82.58502903 150.48322168 -64.63671875 150.33984375 C-62.27206406 150.31593884 -59.90776442 150.28775781 -57.5433197 150.24806213 C-56.08540798 150.22396876 -54.62730873 150.20889671 -53.16920471 150.20445251 C-49.23634058 150.14389994 -45.9801048 149.95829571 -42.57421875 147.90234375 C-39.20128223 142.12345156 -40.16519225 134.87532041 -40.13671875 128.40234375 C-40.10384766 127.08363281 -40.07097656 125.76492188 -40.03710938 124.40625 C-40.03001953 123.13652344 -40.02292969 121.86679687 -40.015625 120.55859375 C-40.00217041 119.40166016 -39.98871582 118.24472656 -39.97485352 117.05273438 C-40.75411638 112.95676372 -42.40431321 111.518308 -45.57421875 108.90234375 C-48.32431183 107.37390363 -48.32431183 107.37390363 -51.26171875 106.15234375 C-64.05107963 99.99333949 -72.71400257 89.52385201 -77.84765625 76.421875 C-80.05443912 68.7693215 -79.79351796 60.82426629 -79.81445312 52.93432617 C-79.82411806 50.73772711 -79.85518353 48.54208188 -79.88671875 46.34570312 C-80.00948095 30.28371014 -76.60399991 17.10108855 -65.38671875 5.08984375 C-47.2839598 -11.81629215 -20.56306216 -14.40937541 0 0 Z " fill="#6C91AB" transform="translate(145.57421875,275.09765625)"/>
<path d="M0 0 C6.6 0 13.2 0 20 0 C23.49973962 81.896741 23.49973962 81.896741 15.8046875 107.9765625 C15.5991563 108.67316231 15.39362511 109.36976212 15.18186569 110.08747101 C13.48756759 115.74699013 11.68055196 121.3703795 9.88509369 126.99838257 C-1.82280028 164.10543825 -0.79756365 202.24576801 -0.6875 240.75 C-0.68436995 241.96166226 -0.68436995 241.96166226 -0.68117666 243.19780254 C-0.66570087 248.82576824 -0.64126437 254.45364816 -0.60913086 260.08154297 C-0.60312101 261.14210982 -0.60312101 261.14210982 -0.59698975 262.22410226 C-0.50691355 276.8182216 -0.23452058 291.40670202 0 306 C-32.01 306 -64.02 306 -97 306 C-96.35564919 301.48954434 -95.68971111 297.36958862 -94.6171875 292.9921875 C-94.34060303 291.85555664 -94.06401855 290.71892578 -93.77905273 289.54785156 C-93.48071533 288.33581055 -93.18237793 287.12376953 -92.875 285.875 C-92.40066547 283.92942866 -91.92633593 281.98385609 -91.45231628 280.03820801 C-90.96123202 278.02425066 -90.46875525 276.01063758 -89.97607422 273.99707031 C-88.44920031 267.75143884 -86.94432279 261.50049296 -85.4375 255.25 C-85.14665527 254.04520996 -84.85581055 252.84041992 -84.55615234 251.59912109 C-82.45274127 242.88532579 -80.35917206 234.16919612 -78.26928711 225.45214844 C-76.06245925 216.25107059 -73.84314351 207.05302408 -71.61865234 197.85620117 C-70.1543132 191.7985687 -68.69781494 185.73924915 -67.2578125 179.67578125 C-66.98259766 178.51949219 -66.70738281 177.36320313 -66.42382812 176.171875 C-65.90222951 173.97835515 -65.38260908 171.78436371 -64.86523438 169.58984375 C-64.63384766 168.61789062 -64.40246094 167.6459375 -64.1640625 166.64453125 C-63.96248535 165.79221924 -63.7609082 164.93990723 -63.55322266 164.06176758 C-63 162 -63 162 -62 160 C-59.75865478 159.74183458 -57.50422464 159.59353629 -55.25 159.5 C-48.86080811 159.25708482 -48.86080811 159.25708482 -43 157 C-41.32200317 154.74768753 -39.95879795 152.65013334 -38.59277344 150.22045898 C-38.18409594 149.51671017 -37.77541843 148.81296135 -37.35435677 148.08788681 C-36.00111246 145.73547495 -34.67658221 143.36886069 -33.359375 140.99609375 C-32.90113468 140.17269312 -32.44289436 139.34929249 -31.97076797 138.50094032 C-28.47942383 132.19039771 -25.09589547 125.82615228 -21.75 119.4375 C-21.25896034 118.5050798 -20.76792068 117.57265961 -20.26200104 116.61198425 C0.25321516 77.45853901 4.6597211 43.52504141 0 0 Z " fill="#FED98E" transform="translate(366,186)"/>
<path d="M0 0 C13.55208678 2.61871996 23.84790141 9.89598361 32 21 C37.10698796 29.68527665 40.32435026 37.85184316 40.265625 48.0234375 C40.26849518 49.14185532 40.26849518 49.14185532 40.27142334 50.28286743 C40.27277641 51.85101664 40.26914172 53.41917739 40.26074219 54.98730469 C40.25006033 57.36158993 40.2606515 59.73511341 40.2734375 62.109375 C40.28992653 79.06321614 36.57792295 93.02466485 24.75 105.6875 C19.46160007 110.73074232 13.04341868 114.05235929 6.5 117.1875 C2.83077046 118.72975499 2.83077046 118.72975499 1 122 C0.69016495 125.021516 0.69016495 125.021516 0.734375 128.4609375 C0.73179687 129.73710937 0.72921875 131.01328125 0.7265625 132.328125 C0.73075195 132.99263672 0.73494141 133.65714844 0.73925781 134.34179688 C0.74992596 136.36098547 0.73937318 138.37927717 0.7265625 140.3984375 C0.73042969 142.3165625 0.73042969 142.3165625 0.734375 144.2734375 C0.73663086 145.44310059 0.73888672 146.61276367 0.74121094 147.81787109 C1.00091329 151.01123 1.50160818 153.17879939 3 156 C6.69649085 158.46432723 9.57133145 158.31338019 13.8515625 158.34375 C14.62503021 158.3583728 15.39849792 158.37299561 16.19540405 158.38806152 C18.67188315 158.43454711 21.14828517 158.46871011 23.625 158.5 C42.56956876 158.7424487 57.8018185 160.36136811 72.12890625 174.03125 C86.38497428 188.96360209 86 204.32447837 86 225 C51.02 225 16.04 225 -20 225 C-20.80160624 192.50447683 -20.80160624 192.50447683 -20.96508789 180.4855957 C-20.97518894 179.74546002 -20.98529 179.00532434 -20.99569714 178.2427603 C-21.06889338 172.7452643 -21.13102901 167.24769134 -21.1875 161.75 C-21.19568552 160.97314456 -21.20387103 160.19628913 -21.21230459 159.39589262 C-21.6962282 112.09237689 -19.9286449 67.70562679 -4.00985718 22.58729553 C-1.35736239 15.00613454 -0.23323685 8.0311138 0 0 Z " fill="#6C91AB" transform="translate(406,267)"/>
<path d="M0 0 C2.13586617 6.08109667 3.86627577 12.15890469 5.3125 18.4375 C5.52487305 19.34234131 5.73724609 20.24718262 5.95605469 21.17944336 C7.1020353 26.07647301 8.22440008 30.97874859 9.33984375 35.8828125 C12.26832124 48.73145602 15.34915968 61.53263087 18.5625 74.3125 C18.75852814 75.09221161 18.95455627 75.87192322 19.15652466 76.67526245 C19.35116302 77.44943512 19.54580139 78.22360779 19.74633789 79.02124023 C22.36433514 89.43636858 24.93646339 99.85936344 27.37451172 110.31835938 C27.83777174 112.30448275 28.30328807 114.29008015 28.77001953 116.27539062 C29.6002182 119.80777576 30.42574623 123.34122334 31.25 126.875 C31.6380481 128.52653076 31.6380481 128.52653076 32.03393555 130.21142578 C32.27539307 131.25282715 32.51685059 132.29422852 32.765625 133.3671875 C33.08708496 134.74559814 33.08708496 134.74559814 33.41503906 136.15185547 C34.08396655 139.40882877 34.52978007 142.70846049 35 146 C16.19 146 -2.62 146 -22 146 C-22.02578125 138.82765625 -22.0515625 131.6553125 -22.078125 124.265625 C-22.1032863 119.72652652 -22.12961369 115.18749515 -22.16015625 110.6484375 C-22.20854184 103.44107796 -22.25256726 96.23387369 -22.27099609 89.02636719 C-22.28612076 83.21661936 -22.32049198 77.4072772 -22.36830902 71.59770966 C-22.38316607 69.37934644 -22.39104348 67.16092532 -22.39188385 64.94251251 C-22.39424221 61.83916276 -22.42123132 58.73694449 -22.45410156 55.63378906 C-22.4490712 54.71309631 -22.44404083 53.79240356 -22.43885803 52.84381104 C-22.48584168 47.78382072 -22.48584168 47.78382072 -24.89764404 43.44696045 C-27.18372747 41.87354835 -28.69256752 41.27526466 -31.4375 40.9375 C-32.17871094 40.82277344 -32.91992188 40.70804687 -33.68359375 40.58984375 C-37.42778416 41.2528117 -38.69487296 43.03392105 -41 46 C-41.7388596 49.24689473 -41.69063988 52.42835384 -41.65942383 55.74731445 C-41.67514938 57.21144524 -41.67514938 57.21144524 -41.69119263 58.70515442 C-41.71994671 61.92485324 -41.71365043 65.14347701 -41.70703125 68.36328125 C-41.720146 70.5981735 -41.73544954 72.8330539 -41.75285339 75.06791687 C-41.79274185 80.94518269 -41.80289638 86.8221387 -41.80688477 92.69952393 C-41.81620886 98.69886699 -41.85361793 104.69802748 -41.88867188 110.69726562 C-41.95328732 122.46487813 -41.98389922 134.23222099 -42 146 C-48.6 146 -55.2 146 -62 146 C-62.09058374 132.51695939 -62.16387913 119.03412288 -62.20724869 105.5508461 C-62.22807014 99.28915293 -62.25628841 93.02767983 -62.30175781 86.76611328 C-62.34540946 80.71659957 -62.36917799 74.66729676 -62.37950897 68.61763763 C-62.38686571 66.31650221 -62.40123125 64.01537755 -62.42292023 61.71433258 C-62.59513114 42.67653981 -60.81454708 28.34680765 -47.3125 13.75 C-33.59698365 0.92954614 -17.87087227 -0.58415684 0 0 Z " fill="#FED98E" transform="translate(208,346)"/>
<path d="M0 0 C3.73313361 0.76498639 5.30580793 2.37277439 7.3828125 5.48828125 C7.3828125 7.13828125 7.3828125 8.78828125 7.3828125 10.48828125 C15.6328125 10.48828125 23.8828125 10.48828125 32.3828125 10.48828125 C33.3728125 12.79828125 34.3628125 15.10828125 35.3828125 17.48828125 C38.96703546 19.87776322 40.75513846 19.79061293 45.01953125 19.90234375 C46.77463013 19.95575928 46.77463013 19.95575928 48.56518555 20.01025391 C50.79522339 20.06125244 50.79522339 20.06125244 53.0703125 20.11328125 C60.155 20.29890625 60.155 20.29890625 67.3828125 20.48828125 C67.3828125 33.68828125 67.3828125 46.88828125 67.3828125 60.48828125 C21.1828125 60.48828125 -25.0171875 60.48828125 -72.6171875 60.48828125 C-72.6171875 47.28828125 -72.6171875 34.08828125 -72.6171875 20.48828125 C-59.4296875 20.11328125 -59.4296875 20.11328125 -55.29614258 20.01025391 C-54.21228271 19.97464355 -53.12842285 19.9390332 -52.01171875 19.90234375 C-50.35426636 19.8552124 -50.35426636 19.8552124 -48.66333008 19.80712891 C-45.4390471 19.46963483 -43.38365553 19.19521948 -40.6171875 17.48828125 C-39.6271875 15.17828125 -38.6371875 12.86828125 -37.6171875 10.48828125 C-29.3671875 10.48828125 -21.1171875 10.48828125 -12.6171875 10.48828125 C-12.6171875 8.83828125 -12.6171875 7.18828125 -12.6171875 5.48828125 C-9.19574302 0.35611453 -5.83418939 -0.30477109 0 0 Z " fill="#EDF9FE" transform="translate(378.6171875,-0.48828125)"/>
<path d="M0 0 C1.19140625 1.6875 1.19140625 1.6875 2.5625 4 C9.84280593 15.17483103 20.49320648 21.03488324 33 25 C33.38475911 43.61806579 31.00561487 58.49619467 17.75 72.6875 C12.46160007 77.73074232 6.04341868 81.05235929 -0.5 84.1875 C-4.16922954 85.72975499 -4.16922954 85.72975499 -6 89 C-6.22143214 91.37195727 -6.22143214 91.37195727 -6.09765625 94.0078125 C-5.96323222 111.28059266 -5.96323222 111.28059266 -9.0625 115.51953125 C-11.27375052 117.65822511 -13.36575142 119.41945085 -16 121 C-20.61517892 118.8625642 -24.17659529 116.29089436 -27 112 C-27.84675607 108.10549711 -27.75598603 104.34488443 -27.625 100.375 C-27.1890936 92.71517702 -27.1890936 92.71517702 -30.16796875 85.9609375 C-32.95275104 84.03271583 -35.58173692 82.59348096 -38.6875 81.25 C-51.53424884 75.06335928 -60.2480657 64.54313153 -65.2734375 51.32421875 C-67.0280932 45.71120725 -67.12235874 40.52142463 -67.0625 34.6875 C-67.05798828 33.85154297 -67.05347656 33.01558594 -67.04882812 32.15429688 C-67.03710548 30.10283351 -67.01917203 28.05140727 -67 26 C-66.42145264 25.95512451 -65.84290527 25.91024902 -65.24682617 25.86401367 C-49.85848072 24.820715 -49.85848072 24.820715 -35 21 C-33.91976562 20.61199219 -32.83953125 20.22398437 -31.7265625 19.82421875 C-21.44045947 15.79379207 -12.02804327 10.08461759 -4.22265625 2.19140625 C-2 0 -2 0 0 0 Z " fill="#E7B9A0" transform="translate(273,220)"/>
<path d="M0 0 C9.80624451 8.16322295 17.76289399 18.39462755 20.140625 31.234375 C20.67186493 37.07801425 20.5139613 42.95296519 20.375 48.8125 C12.59869943 46.51168845 7.43940946 42.32259559 3.5 35.1875 C1.17775884 30.15726333 0.50995561 25.18254326 0.02734375 19.6953125 C-0.76478898 16.1947499 -1.78183318 14.96111465 -4.625 12.8125 C-6.81806916 11.98254097 -6.81806916 11.98254097 -9.125 11.8125 C-9.8778125 11.709375 -10.630625 11.60625 -11.40625 11.5 C-14.6019642 11.95010059 -15.59409283 13.35728566 -17.625 15.8125 C-18.77218126 17.53460893 -19.87475909 19.28703786 -20.9375 21.0625 C-30.50630254 36.25171497 -43.53134167 44.92360896 -60.625 49.8125 C-65.2757746 50.65895206 -69.90117257 50.93404784 -74.625 50.875 C-75.57375 50.86597656 -76.5225 50.85695312 -77.5 50.84765625 C-78.20125 50.83605469 -78.9025 50.82445312 -79.625 50.8125 C-80.19356091 33.03970704 -78.1424337 18.60419398 -65.4375 5 C-47.72924013 -11.48184322 -19.89958963 -14.77082942 0 0 Z " fill="#D78961" transform="translate(285.625,175.1875)"/>
<path d="M0 0 C3.62573473 0.57475651 5.26023509 1.91398741 7.78515625 4.52734375 C8.48060547 5.23697266 9.17605469 5.94660156 9.89257812 6.67773438 C10.60865234 7.42345703 11.32472656 8.16917969 12.0625 8.9375 C13.48868019 10.40709122 14.91697991 11.87462926 16.34765625 13.33984375 C16.97679932 13.99331787 17.60594238 14.64679199 18.25415039 15.32006836 C20.33745395 17.32471271 22.03373863 18.89136706 24.98046875 19.22265625 C31.95444505 18.71658009 35.24632799 15.90674195 40 11 C41.44016559 9.52186781 42.88271847 8.04629494 44.33056641 6.57568359 C45.30706378 5.57859451 46.27449569 4.57253347 47.23193359 3.55712891 C48.43228977 2.31509671 49.71188856 1.15076838 51 0 C51.99 0 52.98 0 54 0 C53.40835836 5.43107353 52.47899935 10.62511332 51.109375 15.91796875 C50.9245607 16.6487413 50.7397464 17.37951385 50.54933167 18.13243103 C50.15632309 19.68461183 49.76122438 21.23626472 49.36416626 22.78741455 C48.32542637 26.84668101 47.30285349 30.9100315 46.27734375 34.97265625 C46.07622482 35.76742371 45.8751059 36.56219116 45.66789246 37.38104248 C41.97937886 51.96803962 38.61404896 66.63002505 35.24291992 81.29296875 C32.8839652 91.54195576 30.45354021 101.773297 28 112 C27.34 112 26.68 112 26 112 C25.3907033 109.46126376 24.78140809 106.92252716 24.17211914 104.38378906 C23.63226736 102.13443422 23.09239031 99.88508544 22.55249023 97.63574219 C21.2049924 92.02162186 19.85778188 86.40743326 18.51171875 80.79296875 C16.14505629 70.92336389 13.77378277 61.05490456 11.39086914 51.18920898 C10.79966109 48.7409369 10.20899845 46.29253305 9.61889648 43.84399414 C8.1753854 37.85569432 6.72467073 31.86934562 5.2578125 25.88671875 C4.84499023 24.19289063 4.84499023 24.19289063 4.42382812 22.46484375 C3.90788298 20.34808103 3.38858861 18.23213056 2.86523438 16.1171875 C1.5601946 10.74434965 0.55997729 5.50210245 0 0 Z " fill="#EAF6FB" transform="translate(229,346)"/>
<path d="M0 0 C1.18529297 -0.020625 2.37058594 -0.04125 3.59179688 -0.0625 C14.70105919 -0.11234526 14.70105919 -0.11234526 19.3125 3.25 C21.79636059 6.97579089 21.6929212 8.83711402 21.3125 13.25 C19.98288044 16.39909896 19.1490543 17.83382154 16.07421875 19.36352539 C10.94957874 21.00846597 5.65127577 20.66115736 0.3125 20.6875 C-0.863125 20.72037109 -2.03875 20.75324219 -3.25 20.78710938 C-11.83474496 20.84076403 -11.83474496 20.84076403 -15.9296875 18.00390625 C-18.4313389 14.08465238 -19.29218676 10.88593186 -18.6875 6.25 C-16.3125 3.25 -16.3125 3.25 -13.6875 1.25 C-11.05722897 -1.38027103 -3.53583668 0.01513467 0 0 Z " fill="#030302" transform="translate(324.6875,405.75)"/>
<path d="M0 0 C3.93539483 0.2997155 6.68003836 0.81811425 10.171875 2.7421875 C13.40412633 8.26829461 12.40392881 13.7512359 12.109375 20.0546875 C5.509375 20.0546875 -1.090625 20.0546875 -7.890625 20.0546875 C-8.49245666 7.17548994 -8.49245666 7.17548994 -6.8125 4.046875 C-5.453125 2.7421875 -5.453125 2.7421875 -2.890625 1.0546875 C-1.890625 0.0546875 -1.890625 0.0546875 0 0 Z " fill="#F7E3CC" transform="translate(373.890625,145.9453125)"/>
<path d="M0 0 C3.125 2.0625 3.125 2.0625 5 5 C5.74846242 10.14567917 4.90475817 13.69294478 2 18 C-1.58466458 20.13142218 -4.88622755 20.59992515 -9 20 C-13.25628919 16.50038444 -14.76636522 14.102713 -15.375 8.625 C-15 5 -15 5 -13.125 2.0625 C-8.74948817 -0.82533781 -5.10170093 -1.02870363 0 0 Z " fill="#030303" transform="translate(381,0)"/>
<path d="M0 0 C3.3 0 6.6 0 10 0 C8.68 1.65 7.36 3.3 6 5 C2.83884224 3.63016497 2.0072908 3.0109362 0 0 Z " fill="#EDF9FE" transform="translate(251,336)"/>
</svg>
